<?xml version="1.0" standalone="no"?>
<!DOCTYPE svg PUBLIC "-//W3C//DTD SVG 20010904//EN"
 "http://www.w3.org/TR/2001/REC-SVG-20010904/DTD/svg10.dtd">
<svg version="1.0" xmlns="http://www.w3.org/2000/svg"
 width="626.000000pt" height="383.000000pt" viewBox="0 0 626.000000 383.000000"
 preserveAspectRatio="xMidYMid meet">

<g transform="translate(0.000000,383.000000) scale(0.100000,-0.100000)"
fill="#000000" stroke="none">
<path d="M2354 3321 c-424 -245 -779 -452 -788 -460 -15 -12 -16 -91 -16 -910
0 -493 4 -901 8 -907 11 -18 1553 -904 1572 -904 19 0 1561 886 1572 904 4 6
8 414 8 907 0 841 -1 897 -17 911 -10 9 -274 163 -588 343 -313 181 -662 382
-774 447 -112 65 -204 118 -205 117 0 -1 -348 -202 -772 -448z m988 246 c117
-68 321 -186 453 -262 132 -76 279 -161 328 -189 l87 -51 -277 -5 c-153 -3
-235 -7 -183 -8 l95 -3 -45 -18 c-25 -9 -66 -30 -93 -45 -47 -28 -47 -28 -90
-11 -45 18 -57 30 -57 58 0 13 9 17 43 19 l42 1 -45 6 c-41 6 -45 8 -48 37 -2
25 4 37 33 62 19 18 47 35 60 38 14 3 22 10 19 15 -7 12 -187 11 -220 -1 -14
-6 -54 -40 -88 -75 -34 -36 -69 -65 -77 -65 -19 0 -51 34 -74 79 -21 41 -14
73 27 124 16 21 28 40 25 43 -7 8 -144 -42 -175 -65 -17 -11 -48 -56 -71 -101
l-42 -80 -69 0 c-64 0 -70 2 -94 31 -32 38 -33 63 -1 124 13 27 23 50 22 52
-5 5 -152 -94 -168 -113 -9 -10 -22 -36 -29 -56 l-12 -38 -104 0 c-90 0 -104
2 -104 17 0 14 -2 14 -21 -3 -44 -39 -111 -145 -116 -182 -2 -20 2 -70 11
-111 l16 -74 -37 -45 c-36 -44 -37 -44 -87 -38 -65 7 -83 27 -100 106 l-13 64
-32 -89 c-42 -116 -39 -158 17 -253 l41 -69 -15 -41 c-18 -45 -36 -51 -132
-42 -49 5 -55 8 -77 43 l-23 39 -7 -40 c-6 -40 -7 -40 -57 -47 -27 -4 -74 -4
-104 0 l-54 6 0 253 0 253 210 122 c116 66 220 121 231 121 11 0 18 4 15 9 -3
4 137 91 312 191 174 101 412 239 527 306 116 67 211 123 212 123 1 1 98 -54
215 -122z m-726 -529 c-3 -13 -6 -37 -6 -55 0 -27 -7 -36 -49 -62 l-50 -30
-52 27 c-57 29 -73 58 -62 113 l6 29 109 0 c110 0 110 0 104 -22z m277 15 c-7
-2 -19 -2 -25 0 -7 3 -2 5 12 5 14 0 19 -2 13 -5z m1544 -119 l203 -116 0
-259 0 -259 -92 0 -91 0 -34 39 c-37 44 -90 65 -186 77 -55 6 -59 8 -78 46
l-20 39 25 54 c35 77 62 86 176 59 36 -8 -79 99 -135 126 -48 23 -75 24 -170
6 l-70 -14 -33 31 c-32 30 -34 35 -30 90 6 78 26 98 110 107 l63 7 -60 28
c-33 15 -78 34 -100 41 -36 11 -22 13 140 13 l180 1 202 -116z m-1127 21 c221
-39 390 -125 549 -279 46 -44 103 -108 127 -142 38 -54 124 -211 124 -228 0
-3 -31 -6 -70 -6 l-70 0 -26 53 c-111 220 -336 395 -591 459 -124 31 -313 31
-432 -1 -251 -66 -462 -228 -577 -444 l-31 -59 -70 -1 -71 -2 10 25 c76 200
255 398 469 518 71 40 245 98 329 110 102 15 237 13 330 -3z m1330 -1030 l0
-325 -1510 0 -1510 0 0 325 0 325 1510 0 1510 0 0 -325z m-2593 -399 c3 -3
-13 -24 -35 -47 -37 -36 -45 -40 -74 -34 -18 4 -50 16 -71 27 l-39 19 19 -31
c10 -18 43 -59 73 -92 62 -67 89 -77 201 -78 l66 0 31 -44 c29 -40 30 -46 21
-81 -6 -21 -24 -52 -41 -68 -27 -28 -33 -29 -89 -24 -32 3 -59 4 -59 2 0 -7
137 -92 167 -105 39 -15 103 -7 180 21 l52 20 41 -27 c45 -30 55 -55 47 -117
-7 -52 -31 -72 -105 -88 l-57 -12 60 -20 c33 -10 87 -21 121 -24 68 -6 96 4
180 68 55 42 61 44 116 29 33 -10 39 -16 54 -64 23 -73 14 -98 -49 -142 l-52
-36 92 5 c133 8 168 29 246 153 23 36 31 42 69 46 36 4 48 1 71 -21 39 -35 60
-78 53 -106 -3 -13 -22 -44 -42 -70 -32 -43 -33 -46 -12 -40 13 4 60 25 106
47 78 37 85 43 108 91 13 29 29 78 35 111 11 55 15 60 52 76 39 18 42 18 76 0
20 -10 47 -30 60 -44 20 -21 23 -32 18 -73 -3 -26 -9 -59 -13 -73 -7 -22 -2
-20 46 20 29 24 66 63 82 85 29 39 29 43 27 148 -3 106 -2 107 27 138 27 28
33 30 74 24 55 -8 95 -28 105 -52 4 -10 10 -43 14 -73 l6 -55 31 55 c18 31 39
78 48 104 15 45 15 53 0 104 -8 31 -27 78 -41 105 l-24 49 25 38 c19 29 33 39
63 43 95 16 113 7 147 -77 27 -66 29 -64 47 52 6 41 8 89 4 108 l-6 34 121 0
120 0 -2 -226 -3 -225 -615 -355 c-338 -196 -677 -391 -752 -434 l-138 -79
-452 261 c-249 143 -461 266 -472 273 -17 13 -16 14 10 18 20 3 17 4 -12 4
-34 -1 -72 18 -245 118 -112 65 -234 136 -271 157 l-68 39 0 223 c0 122 2 225
4 227 7 6 416 2 423 -5z m304 -44 c122 -217 329 -373 576 -434 123 -30 303
-30 426 0 246 61 454 217 575 432 l31 55 70 -3 70 -4 -11 -26 c-27 -64 -105
-185 -159 -247 -145 -168 -323 -278 -545 -337 -122 -32 -368 -32 -486 0 -194
53 -331 128 -466 257 -52 49 -113 117 -137 150 -40 55 -115 191 -115 207 0 4
31 7 69 7 l70 0 32 -57z"/>
<path d="M2138 3063 c29 -2 74 -2 100 0 26 2 2 3 -53 3 -55 0 -76 -1 -47 -3z"/>
<path d="M4431 2684 c0 -11 3 -14 6 -6 3 7 2 16 -1 19 -3 4 -6 -2 -5 -13z"/>
<path d="M3506 2215 c-3 -9 -6 -28 -6 -41 0 -24 1 -24 100 -24 55 0 100 -2
100 -5 0 -3 -49 -84 -108 -181 -88 -142 -108 -181 -104 -205 l4 -29 153 0
c150 0 153 0 159 23 14 53 15 52 -111 48 l-117 -3 16 23 c123 190 208 340 208
368 l0 31 -122 0 c-68 0 -133 3 -144 6 -14 4 -23 0 -28 -11z"/>
<path d="M2440 1975 l0 -245 40 0 39 0 3 83 3 82 59 0 c66 0 61 5 106 -97 l29
-68 50 0 50 0 -44 92 -43 93 33 36 c52 58 58 148 14 210 -31 45 -85 59 -219
59 l-120 0 0 -245z m239 160 c50 -25 58 -99 16 -141 -23 -23 -31 -25 -97 -22
l-73 3 -3 74 c-2 41 -1 80 2 88 7 18 119 17 155 -2z"/>
<path d="M2977 2108 c-26 -62 -58 -143 -72 -180 -14 -38 -36 -97 -50 -133
l-24 -65 45 0 c47 0 44 -3 74 78 l12 32 104 0 103 0 19 -52 c19 -53 20 -53 66
-56 25 -2 46 -1 46 2 0 6 -150 387 -177 449 -15 34 -19 37 -58 37 l-42 0 -46
-112z m127 -91 c20 -51 36 -96 36 -100 0 -4 -34 -7 -75 -7 -41 0 -75 4 -75 9
0 21 66 191 75 191 1 0 19 -42 39 -93z"/>
<path d="M3340 1975 l0 -245 45 0 45 0 0 245 0 245 -45 0 -45 0 0 -245z"/>
<path d="M3810 1712 c0 -5 7 -9 15 -9 8 0 12 4 9 9 -3 4 -9 8 -15 8 -5 0 -9
-4 -9 -8z"/>
<path d="M2320 1675 c-10 -12 -10 -21 -2 -40 11 -25 36 -33 46 -16 3 5 -2 8
-12 7 -12 -1 -17 6 -17 24 0 18 5 25 18 24 9 -1 17 2 17 7 0 15 -37 10 -50 -6z"/>
<path d="M2416 1666 c-3 -13 -9 -32 -12 -41 -6 -15 -4 -15 15 -3 18 11 23 11
31 -2 17 -27 20 -3 5 33 -18 43 -30 47 -39 13z m24 -11 c0 -8 -4 -15 -10 -15
-5 0 -7 7 -4 15 4 8 8 15 10 15 2 0 4 -7 4 -15z"/>
<path d="M2501 1648 c1 -24 3 -35 6 -25 6 21 19 22 27 2 14 -38 23 -7 17 58
-1 4 -12 7 -26 7 -23 0 -25 -4 -24 -42z m39 17 c0 -8 -7 -15 -15 -15 -8 0 -15
7 -15 15 0 8 7 15 15 15 8 0 15 -7 15 -15z"/>
<path d="M2585 1679 c-4 -5 -4 -21 -1 -34 5 -18 11 -23 24 -18 34 12 42 24 31
44 -11 21 -44 26 -54 8z m43 -22 c2 -10 -3 -17 -12 -17 -10 0 -16 9 -16 21 0
24 23 21 28 -4z"/>
<path d="M2683 1650 c0 -25 2 -35 4 -22 2 12 2 32 0 45 -2 12 -4 2 -4 -23z"/>
<path d="M2721 1648 l2 -43 6 35 7 35 17 -32 c24 -45 37 -41 35 10 -1 39 -2
39 -5 8 l-4 -34 -20 32 c-26 43 -39 39 -38 -11z"/>
<path d="M2827 1682 c6 -4 13 -23 16 -42 l4 -35 1 37 c1 20 8 39 15 41 6 3 -1
6 -18 6 -17 0 -25 -3 -18 -7z"/>
<path d="M2902 1650 c0 -37 3 -40 27 -39 26 0 26 0 3 10 -25 10 -21 29 6 30
12 0 9 4 -8 11 l-25 11 25 7 25 8 -27 1 c-25 1 -27 -2 -26 -39z"/>
<path d="M2980 1681 c0 -6 8 -10 18 -8 9 1 17 -2 17 -8 0 -5 -8 -9 -17 -8 -10
2 -18 -2 -18 -7 0 -6 9 -10 20 -10 11 0 20 -7 20 -15 0 -8 4 -15 9 -15 4 0 8
17 7 38 -1 33 -4 37 -28 40 -16 2 -28 -1 -28 -7z"/>
<path d="M3073 1650 c0 -25 2 -35 4 -22 2 12 2 32 0 45 -2 12 -4 2 -4 -23z"/>
<path d="M3129 1663 c-5 -16 -12 -34 -14 -40 -2 -7 0 -13 4 -13 5 0 11 6 14
13 3 9 9 9 26 -1 24 -14 25 -10 9 35 -15 40 -25 42 -39 6z m26 -13 c3 -5 1
-10 -4 -10 -6 0 -11 5 -11 10 0 6 2 10 4 10 3 0 8 -4 11 -10z"/>
<path d="M3260 1666 c0 -14 4 -28 10 -31 5 -3 8 0 5 7 -3 7 0 20 5 28 8 13 11
13 25 -1 19 -19 11 -46 -16 -52 -16 -4 -15 -4 2 -3 53 3 49 68 -5 74 -22 3
-26 0 -26 -22z"/>
<path d="M3360 1650 c0 -37 2 -40 28 -39 23 2 24 2 5 6 -13 2 -23 11 -23 18 0
7 10 16 23 18 l22 4 -22 2 c-13 0 -23 5 -23 10 0 5 10 12 23 14 19 4 18 4 -5
6 -26 1 -28 -2 -28 -39z"/>
<path d="M3490 1650 c0 -36 3 -40 25 -40 31 0 50 32 35 60 -6 12 -21 20 -35
20 -22 0 -25 -4 -25 -40z m45 0 c0 -16 -6 -26 -17 -28 -14 -3 -18 3 -18 28 0
25 4 31 18 28 11 -2 17 -12 17 -28z"/>
<path d="M3593 1650 c0 -25 2 -35 4 -22 2 12 2 32 0 45 -2 12 -4 2 -4 -23z"/>
<path d="M3640 1672 c0 -10 6 -24 12 -30 10 -10 10 -15 -2 -22 -11 -7 -11 -10
-2 -10 18 0 27 29 13 43 -16 16 -14 25 7 30 13 4 11 5 -5 6 -16 1 -23 -5 -23
-17z"/>
<path d="M3710 1650 c0 -37 2 -40 28 -39 23 2 24 2 5 6 -13 2 -23 11 -23 18 0
7 10 16 23 18 l22 4 -22 2 c-13 0 -23 5 -23 10 0 5 10 12 23 14 19 4 18 4 -5
6 -26 1 -28 -2 -28 -39z"/>
<path d="M3792 1648 c1 -40 2 -40 5 -9 l4 34 20 -32 c26 -43 39 -39 38 12 l-2
42 -6 -35 -7 -35 -17 33 c-24 44 -37 40 -35 -10z"/>
<path d="M3900 1675 c-26 -31 13 -82 44 -56 19 16 21 42 4 59 -16 16 -33 15
-48 -3z m45 -15 c8 -24 -1 -40 -21 -40 -17 0 -28 24 -20 45 8 22 34 18 41 -5z"/>
</g>
</svg>
